<svg xmlns="http://www.w3.org/2000/svg" width="30.892" height="19.771" viewBox="0 0 30.892 19.771">
  <path id="Shape" d="M27.674,19.771H3.218A3.159,3.159,0,0,1,0,16.682V3.089A3.159,3.159,0,0,1,3.218,0H27.674a3.159,3.159,0,0,1,3.218,3.089V16.682A3.159,3.159,0,0,1,27.674,19.771ZM19.952,9.885a.656.656,0,0,0-.5.222.6.6,0,0,0-.146.449.608.608,0,0,0,.229.421l7.724,6.179a.662.662,0,0,0,.906-.079.6.6,0,0,0,.147-.449.61.61,0,0,0-.228-.423l-7.724-6.178A.663.663,0,0,0,19.952,9.885Zm-9.012,0a.658.658,0,0,0-.413.142L2.8,16.206a.6.6,0,0,0-.082.872.663.663,0,0,0,.907.079l7.722-6.179a.6.6,0,0,0,.082-.871A.655.655,0,0,0,10.94,9.886ZM3.216,2.471a.648.648,0,0,0-.529.269.6.6,0,0,0-.1.459.615.615,0,0,0,.27.4l10.556,6.933a3.7,3.7,0,0,0,4.07,0L28.037,3.6a.615.615,0,0,0,.27-.4.6.6,0,0,0-.1-.459.647.647,0,0,0-.529-.268.674.674,0,0,0-.365.108L16.754,9.513a2.382,2.382,0,0,1-2.617,0L3.581,2.58A.66.66,0,0,0,3.216,2.471Z" transform="translate(0 0)" fill="#4ac200"/>
</svg>
