<svg xmlns="http://www.w3.org/2000/svg" width="35.55" height="22.752" viewBox="0 0 35.55 22.752">
  <path id="Shape" d="M31.846,22.752H3.7A3.636,3.636,0,0,1,0,19.2V3.555A3.636,3.636,0,0,1,3.7,0H31.846a3.636,3.636,0,0,1,3.7,3.555V19.2A3.636,3.636,0,0,1,31.846,22.752ZM22.96,11.375a.755.755,0,0,0-.57.255.69.69,0,0,0-.168.517.7.7,0,0,0,.263.485l8.888,7.11a.762.762,0,0,0,1.043-.091.689.689,0,0,0,.169-.516.7.7,0,0,0-.263-.487L23.434,11.54A.763.763,0,0,0,22.96,11.375Zm-10.371,0a.758.758,0,0,0-.475.164L3.228,18.649a.694.694,0,0,0-.095,1,.763.763,0,0,0,1.044.091l8.887-7.11a.692.692,0,0,0,.095-1A.754.754,0,0,0,12.589,11.376ZM3.7,2.844a.745.745,0,0,0-.609.31.691.691,0,0,0-.118.529.708.708,0,0,0,.311.461l12.148,7.978a4.261,4.261,0,0,0,4.684,0L32.264,4.143a.708.708,0,0,0,.311-.461.687.687,0,0,0-.119-.529.745.745,0,0,0-.609-.308.775.775,0,0,0-.42.124L19.28,10.947a2.741,2.741,0,0,1-3.011,0L4.121,2.969A.76.76,0,0,0,3.7,2.844Z" fill="#fff"/>
</svg>
