<svg xmlns="http://www.w3.org/2000/svg" width="475.548" height="624.76" viewBox="0 0 475.548 624.76">
  <g id="Layer_2" data-name="Layer 2" transform="translate(0.006 -0.002)" opacity="0.15">
    <g id="Layer_1" data-name="Layer 1" transform="translate(-0.006 0.002)">
      <path id="Path_247" data-name="Path 247" d="M483.6,780.63a115.065,115.065,0,0,0-47.287-7.733c-22.469,1.157-44.9,3.2-67.343,4.834-21.819,1.585-28.374-2.52-36.413-22.7-16.557-41.411-1.085-94,35.506-119.143,11.716-8.054,24.433-14.637,36.306-22.483,4.948-3.27,14.622-5.612,11.752-12.752-2.628-6.547-11.995-4.862-18.871-4.569-3.784.164-6.933,1.828-10.1,3.92C376.815,606.839,366.448,613.672,355.8,620c-22.069,13.016-42.025,28.031-53.406,55.263-3.206-8.646-5.148-14.694-7.647-20.506-16.036-37.327-46.409-54.142-85.021-58.74-4.634-.55-11.424-1.042-12.595,5.2-.892,4.869,4.791,5.99,8.8,6.79,36.8,7.326,54.506,32.843,63.845,66.536,8.882,32.022,7.754,64.573,5.662,97.231-.428,6.661-4.412,7.083-9.332,7-14.28-.25-28.5-.621-42.746-.714-12.452-.071-24.84.664-36.52,5.676-2.856,1.235-6.954,2.256-6.512,6,.521,4.42,4.941,4.812,8.568,5.112,2.735.221,5.712.586,8.225-.186,14.894-4.527,30.073-2.856,45.2-2.592,22.59.393,45.1.186,66.4-8.882,2.22-.943,4.191-1.5,6.526-.5,29.673,12.616,60.4,8.168,91.012,5.541,16.493-1.428,33.007-2.856,49.558-1.05,8.625.928,16.215,6.783,25.382,5.391,3.984-.607,9.282,0,9.939-5.112C491.731,783.121,486.89,781.886,483.6,780.63Z" transform="translate(-51.562 -170.374)" fill="#fff"/>
      <path id="Path_248" data-name="Path 248" d="M199.608,129.512c-1.778-4.041-3.891-7.939-5.855-11.9-8.468-3.227-15.422-9.282-24.561-11.567-46.63-11.559-94.96,21.491-102.321,71.57-5.041,34.2,6.09,63.031,35.485,82.237,28.31,18.492,58.547,19.992,88.534,3.32,6.661-3.691,15.186-7.4,12.945-17.885,22.533,29.081,59.7,36.763,92.982,18.1,7.547-4.227,12.852-5.562,20.884-1.328,10.945,5.748,22.212,4.855,33.864-5.255-23.561-4.762-32.172-19.992-35.849-39.441a125.053,125.053,0,0,1-1.478-32.965c1.192-15.579,2.742-31.165,3.027-46.773.421-23.376-10.36-40.247-31.415-50.814-27.546-13.837-70.306-4.412-89.427,19.72-2.792,3.527-2.735,6.426-1.192,10,8.032,1.985,14.737.407,21.205-5.412,11.874-10.688,26.546-13.866,42.2-13.152s25.168,8.318,30.594,23.04c3.391,9.2,1.428,14.758-7.661,18.464-13.994,5.712-28.238,11.01-41.611,17.964-38.17,19.849-49.122,46.795-36.513,87.3-16.6,4.213-32.129,12.095-50.229,10.874-32.551-2.2-56.055-23.283-61.36-56.755-5.1-32.179,10.981-63.2,38.555-73.4,12.945-4.791,26.189-6,38.227,2.578,7.975,5.712,10.581,14.28,7.433,23.269-3.22,9.175-10.9,6.062-17.564,4.177-6.383-1.806-11.117.307-13.03,6.569-2,6.547,2.056,10.3,7.547,12.852,12.945,6,28.781,3.113,39.69-7.233C202.9,157.936,205.627,143.228,199.608,129.512Zm42.7,48.587a67.208,67.208,0,0,1,12.987-7.654c11.631-5.134,23.462-9.817,36.5-15.215-1.078,15.251-2.22,28.824-2.934,42.418-.578,11.031-.585,22.355,3.491,32.608,4.505,11.331-1.164,16.008-9.882,19.992a39.712,39.712,0,0,1-50.479-15.386c-11.481-18.814-7.054-43.767,10.317-56.755Z" transform="translate(-18.787 -22.994)" fill="#fff"/>
      <path id="Path_249" data-name="Path 249" d="M84.413,102.844c-8.839-6.49-17.343-8.461-25.1,1.378-2.328,2.949-4.205,4.055-7.89,1.814-7.24-4.391-16.914-4.769-22.134-13.566-1.057,11.088,3.87,19.47,10.774,26.91-6.9,5.341-14.323,1.207-23.74,3.02,12.138,9.589,23.076,14.437,35.7,14.651C75.024,137.444,73.467,114.361,84.413,102.844Z" transform="translate(-4.663 -26.449)" fill="#fff"/>
      <path id="Path_250" data-name="Path 250" d="M378.951,64.273c17.314,3.441,33.436-8.054,40.7-28.881,2.92-8.368.593-11.081-6.84-10.231-19.506.171-34.357,11.574-39.733,28.945C371.1,60.517,372.146,62.952,378.951,64.273Z" transform="translate(-106.447 -7.155)" fill="#fff"/>
      <path id="Path_251" data-name="Path 251" d="M45.894,303.071c7.94,1.763,11.624.243,10.467-7.568-.079-17.593-12.723-30.066-32.929-34.164-7.354-1.492-10-.114-9.082,7.925C16.307,286.392,28.259,299.13,45.894,303.071Z" transform="translate(-4.05 -74.597)" fill="#fff"/>
      <path id="Path_252" data-name="Path 252" d="M615.635,295.49c-5,5.169-8.2,2.378-12.852.121s-7.968-7.547-14.051-7.611c-3.606,8.611,5,13.309,5.89,20.263-5,3.463-10.453-1.028-16.943,1.071,20.934,20.591,35.963,19.535,49.658-2.963,1.778-2.913,10.638-4.284,4.441-10.1C627.131,291.934,620.541,290.385,615.635,295.49Z" transform="translate(-165.221 -82.374)" fill="#fff"/>
      <path id="Path_253" data-name="Path 253" d="M202.556,87.623c3.67,1.15,4.812-.828,6.426-3.056,6.918-9.667,5.391-24.333-3.734-35.485a7.046,7.046,0,0,0-.9-1.028c-5.041-4.155-9.4-13.13-15.879-10.2C182.757,40.443,183.907,50,183,55.894,183.164,68.667,193.71,84.86,202.556,87.623Z" transform="translate(-52.336 -10.664)" fill="#fff"/>
      <path id="Path_254" data-name="Path 254" d="M206.4,495.7a35.442,35.442,0,0,0-27.3-34.821c-6.747-1.592-8.953.407-9.61,6.947-1.628,16.279,15.222,34.8,31.737,34.985C207.159,502.843,206.466,499.373,206.4,495.7Z" transform="translate(-48.443 -131.672)" fill="#fff"/>
      <path id="Path_255" data-name="Path 255" d="M330.206,34.893c2.749,7.24,6.1,17.85,13.566,16.507C352,49.872,355.238,39.327,355.952,29.9,355.338,18.528,350.1,9.061,342.186.986c-2.092-2.142-4.141-.414-5.519,1.635-6.333,9.417-10.6,19.278-6.947,30.966C329.9,34.029,330.041,34.465,330.206,34.893Z" transform="translate(-93.915 -0.002)" fill="#fff"/>
      <path id="Path_256" data-name="Path 256" d="M382.983,512.913c-3.7-1.478-6.911-4.177-10.831-6.633.107,9.375,5.762,15.151,9.282,21.605-6.183,3.491-11.981,0-19.513,1.021,10,7.99,19.385,12.43,30.987,11.888,17.314-.8,15.758-17.807,23.854-27.131-5.355-3.62-11.966-6.726-16.229-1.471C394.071,520.174,388.68,515.183,382.983,512.913Z" transform="translate(-103.51 -144.805)" fill="#fff"/>
      <path id="Path_257" data-name="Path 257" d="M252.051,61.246c10.981,2.92,20.3-.207,30.03-7.026-4.577-4.855-10.267-1.171-13.352-5,2.178-5.983,9.389-9.6,5.755-17.571-9.353,3.627-17.85,11.652-27.781,1.121-3.206-3.384-9.11-.129-13.223,3.748C241.855,43.725,239.413,57.876,252.051,61.246Z" transform="translate(-66.774 -8.97)" fill="#fff"/>
      <path id="Path_258" data-name="Path 258" d="M509.32,76.344c1.428-3.027,8.568-5.255,3.127-9.846-4.07-3.449-10.067-4.52-13.723,0-4.869,6.033-9.167,3.656-14.1,1.15-3.713-1.885-7.5-3.57-11.374-.95-.478,6.04,6.126,8.9,6.469,15.108l-15.208.914C481.689,100.1,499.481,97.52,509.32,76.344Z" transform="translate(-132.853 -18.162)" fill="#fff"/>
      <path id="Path_259" data-name="Path 259" d="M220.976,373.026c-1.028-7.14-3.327-9.546-10.71-6.162-14.43,6.6-19.328,20.948-13.13,40.8C215.271,400.743,223.261,388.877,220.976,373.026Z" transform="translate(-55.627 -104.498)" fill="#fff"/>
      <path id="Path_260" data-name="Path 260" d="M643.824,445.9c-11.11,1.149-20.706,14.937-19.627,29.273.321,4.234-1.635,11.124,5.126,12.073,7.761,1.092,20.377-14.715,21.527-25.789.143-1.364.157-2.742.264-4.748C649.1,453.245,653.8,444.87,643.824,445.9Z" transform="translate(-178.502 -127.512)" fill="#fff"/>
      <path id="Path_261" data-name="Path 261" d="M416.538,427.714c11.552-.136,21.877-10.767,23.426-24.375.314-2.763,2.313-6.333-2.42-7.782-7.383-2.256-22.233,8.247-26.075,18.656a45.043,45.043,0,0,0-1.742,6.561C408.585,426.372,411.319,428.285,416.538,427.714Z" transform="translate(-117.11 -113.048)" fill="#fff"/>
      <path id="Path_262" data-name="Path 262" d="M623.176,220.56c-11.3,4.619-17.25,12.945-18.813,24.8-1.05,7.982,2.856,10,9.7,7.783,12.63-4.063,17.336-13.887,18.242-24.99C633.835,218.368,630.151,217.711,623.176,220.56Z" transform="translate(-172.804 -62.663)" fill="#fff"/>
      <path id="Path_263" data-name="Path 263" d="M192.867,526.858c-11.274-.407-26.789,10.817-25.853,18.7.814,6.9,7.5,4.941,11.281,6.069,10.346-.043,26.6-12.9,25.632-20.363C203.049,524.445,196.73,527,192.867,526.858Z" transform="translate(-47.753 -150.59)" fill="#fff"/>
      <path id="Path_264" data-name="Path 264" d="M139.488,223.065c-8.3-2.285-10.8.814-11.217,8.418-.921,16.607,12.059,30.566,32.272,35.8,7.511,1.942,9.2-.293,8.375-6.426C168.762,242.578,156.624,227.806,139.488,223.065Z" transform="translate(-36.67 -63.591)" fill="#fff"/>
      <path id="Path_265" data-name="Path 265" d="M207.751,240.582c-11.288,5-14.023,14.844-13.673,26.068.079,2.62.243,6.376,4.17,5.283,10.546-2.949,17.293-9.853,19.456-20.8a29.141,29.141,0,0,0,.314-3.656C217.84,239,215.277,237.233,207.751,240.582Z" transform="translate(-55.497 -68.356)" fill="#fff"/>
      <path id="Path_266" data-name="Path 266" d="M567.146,359.817c-24.276-15.479-49.922-14.7-75.1-3.57-9.725,4.284-17.4,4.284-26.846.6a120.307,120.307,0,0,0-58.176-7.518c-4.384.514-10.488,2.313-10.224,7.461.293,5.712,6.483,3.313,10.2,3.62,18.878,1.535,37.256,4.741,54.977,15.158-23.783,24.875-30.609,54.977-28.324,87.82,1.007,14.444,4.905,28.217,14.28,39.476,13.751,16.522,31.687,23.8,52.835,18.564,23.669-5.876,32.843-24.554,37.584-46.409,5.955-27.545-1.328-52.685-13.787-76.91l.071-.214-.071.214c5.455-1,7.618,10.139,13.4,4.534,4.284-4.141,4.284-11,2.577-16.822-1.664-5.712-5.126-13.366-10.638-12.53-6.961,1.05-6.94,9.2-6.162,15.672.328,2.7.771,5.376,1.164,8.061h0c-11.574-7.918-19.013-20.2-32.129-27.081,28.8-21.855,68.543,2.62,70.813,27.253.821,8.989,3.727,14.351,13.28,12.852,9.346-1.428,12.852-7.775,12.059-16.921C587.666,378.052,579.263,367.549,567.146,359.817ZM509.178,494.046c-6.09,14.194-21.769,16.572-33.6,4.562-13.152-13.352-15.808-30.573-16.522-48.5,1.871-19.585,4.512-39.083,13.087-57.3,2.856-6.033,4.934-8.568,11.6-3.07,28.488,23.626,40.133,70.049,25.432,104.3Z" transform="translate(-113.483 -99.542)" fill="#fff"/>
      <path id="Path_267" data-name="Path 267" d="M259.857,521.243c34.985,28.459,88.1,30.623,123.219,4.37,5.433-4.063,17.343-8.061,10.8-17.178-6.233-8.689-14.13.171-20.1,4.284C338.8,536.8,299.769,530.775,272.009,495.582c4.712-2.463,8.932-4.334,12.809-6.754,29.088-18.214,53.756-40.6,64.137-74.576,6.54-21.419-3.57-39.362-24.468-47.273-33.914-12.852-76.525,5.3-91.511,38.919C215.433,445.232,226.914,494.469,259.857,521.243Zm7.554-128.853c11.424-14.28,25.7-17.35,40.2-9.068,13.773,7.854,18.892,21.612,12.438,38.027-9.946,25.3-28.252,43.71-50.914,58.147-5.776,3.677-7.711,1.049-9.674-4.284-4.348-11.781-6.312-23.926-7.14-35.521,1.271-17.578,4.263-33.764,15.079-47.309Z" transform="translate(-64.292 -103.777)" fill="#fff"/>
      <path id="Path_268" data-name="Path 268" d="M168.656,505.894c2.413-1.042,5.1-3.249,4.405-6.326-.828-3.67-4.284-4.327-7.6-4.5-6.19-.328-11.6,2.463-17.271,4.284-31.915,10.217-73.155,1.264-90.49-19.87,29.538-10.9,51.635-29.7,62.938-59.646,14.694-38.9-8.746-74.547-48.358-74.119-9.839.107-18.821,3.713-28.274,5.312a2.235,2.235,0,0,0-.1-2.4c2-5.883,13.152-10.16,6.326-16.921-6-5.94-15.458-4.284-23.162.421a10.186,10.186,0,0,0-1.171.714c-6.033,4.927-14.515,10.981-12.173,18.114,2.142,6.426,12.181,3.049,18.885,2.92l2.806,2.727h0c-46.9,33.122-47.4,104.677-.428,139.613,34.378,25.561,73.062,27.3,113.124,17.385C155.183,511.863,161.944,508.786,168.656,505.894ZM40.067,461.934c-8.239-13.252-11.931-27.71-11.995-44,.921-14.53,3.484-29.4,12.48-42.3,12.623-18.1,36.413-17.571,48.137,1.064,20.905,33.2-5.562,80.273-38.762,90.241C44.751,468.5,42.43,465.768,40.067,461.934Z" transform="translate(0.006 -93.783)" fill="#fff"/>
      <path id="Path_269" data-name="Path 269" d="M429,119.11c-.243,5.6,4.927,4.113,8.175,4.691,9.11,1.614,17.85,4.17,26.667,9.732-3.47,4.163-6.226,7.211-8.7,10.467-22.541,29.716-24.318,78.317-3.684,104.784,11.731,15.051,26.981,21.869,46.095,17.85,18.756-3.963,29.081-16.336,33.279-34.514a101.154,101.154,0,0,0-1.021-49.1c-5.6-21.47-17.628-38.9-34.771-54.463,16.165-8.054,29.688-4.684,42.2,4.334,13.444,9.689,19.428,22.79,16.15,39.612-1.8,9.282,2.785,13.28,11.774,10.638,6.69-1.963,10.9-6.533,12.959-13.152,5.091-16.379.2-30.159-12.088-41.068-22.212-19.72-47.837-21.841-74.733-11.774-6.49,2.428-11.424,2.856-18.014.071-11.424-4.855-23.626-7.8-36.256-4.477C433.523,113.634,429.175,114.826,429,119.11Zm54.877,30.223c23.726,27.91,28.923,59.725,19.727,94.246-2.749,10.317-12.852,11.888-21.684,3.613-15.079-14.158-19.813-32.529-19.849-52.742.892-15.087,3.513-29.837,11.11-43.467,3.163-5.64,5.548-7.69,10.688-1.642Z" transform="translate(-122.693 -31.82)" fill="#fff"/>
    </g>
  </g>
</svg>
