<svg xmlns="http://www.w3.org/2000/svg" width="181.924" height="239.006" viewBox="0 0 181.924 239.006">
  <g id="Layer_2" data-name="Layer 2" transform="translate(-58.994 24.998)">
    <g id="Layer_1" data-name="Layer 1" transform="translate(58.994 -24.998)">
      <path id="Path_247" data-name="Path 247" d="M296.325,666.432a44.021,44.021,0,0,0-18.09-2.958c-8.6.443-17.175,1.224-25.762,1.849-8.347.606-10.855-.964-13.93-8.683-6.334-15.842-.415-35.959,13.583-45.579,4.482-3.081,9.347-5.6,13.889-8.6,1.893-1.251,5.594-2.147,4.5-4.878-1.005-2.5-4.589-1.86-7.219-1.748a7.541,7.541,0,0,0-3.862,1.5c-3.955,2.614-7.921,5.228-12,7.648C238.99,609.96,231.356,615.7,227,626.122c-1.226-3.308-1.969-5.621-2.925-7.844-6.135-14.28-17.754-20.712-32.525-22.471-1.773-.21-4.37-.4-4.818,1.991-.341,1.863,1.833,2.292,3.368,2.6,14.078,2.8,20.851,12.564,24.424,25.454,3.4,12.25,2.966,24.7,2.166,37.2-.164,2.548-1.688,2.709-3.57,2.677-5.463-.1-10.9-.238-16.353-.273-4.764-.027-9.5.254-13.971,2.172-1.093.473-2.66.863-2.491,2.3.2,1.691,1.89,1.841,3.278,1.956a8.72,8.72,0,0,0,3.147-.071c5.7-1.732,11.5-1.092,17.292-.991,8.642.15,17.254.071,25.4-3.4a2.948,2.948,0,0,1,2.5-.191c11.352,4.826,23.1,3.125,34.817,2.12,6.309-.546,12.627-1.093,18.959-.4,3.3.355,6.2,2.595,9.71,2.062,1.524-.232,3.551,0,3.8-1.956C299.436,667.385,297.584,666.912,296.325,666.432Z" transform="translate(-131.047 -432.975)" fill="#52bc04"/>
      <path id="Path_248" data-name="Path 248" d="M116.928,99.182c-.68-1.546-1.489-3.037-2.24-4.553-3.239-1.235-5.9-3.551-9.4-4.425-17.839-4.422-36.328,8.221-39.144,27.379-1.928,13.083,2.33,24.113,13.575,31.46,10.83,7.074,22.4,7.648,33.869,1.27,2.548-1.412,5.81-2.832,4.952-6.842,8.62,11.125,22.837,14.064,35.571,6.924,2.887-1.617,4.917-2.128,7.989-.508,4.187,2.2,8.5,1.857,12.955-2.01-9.014-1.822-12.308-7.648-13.714-15.088a47.839,47.839,0,0,1-.565-12.611c.456-5.96,1.049-11.923,1.158-17.893.161-8.943-3.963-15.4-12.018-19.439-10.538-5.293-26.9-1.688-34.211,7.544a3.305,3.305,0,0,0-.456,3.824,8.253,8.253,0,0,0,8.112-2.07c4.542-4.089,10.155-5.3,16.145-5.031s9.628,3.182,11.7,8.814c1.3,3.521.546,5.646-2.931,7.063-5.354,2.185-10.8,4.212-15.919,6.872-14.6,7.593-18.792,17.9-13.968,33.4-6.35,1.612-12.291,4.627-19.215,4.16-12.452-.841-21.444-8.907-23.474-21.712-1.95-12.31,4.2-24.178,14.75-28.079,4.952-1.833,10.019-2.3,14.624.986a7.394,7.394,0,0,1,2.843,8.9c-1.232,3.51-4.171,2.319-6.719,1.6-2.442-.691-4.253.117-4.985,2.513-.765,2.5.787,3.941,2.887,4.916a13.8,13.8,0,0,0,15.184-2.767A12.7,12.7,0,0,0,116.928,99.182Zm16.336,18.587a25.71,25.71,0,0,1,4.968-2.928c4.449-1.964,8.975-3.756,13.963-5.821-.412,5.834-.849,11.027-1.123,16.227-.221,4.22-.224,8.552,1.336,12.474,1.724,4.335-.445,6.124-3.78,7.648a15.192,15.192,0,0,1-19.311-5.886,16.529,16.529,0,0,1,3.947-21.712Z" transform="translate(-47.753 -58.433)" fill="#52bc04"/>
      <path id="Path_249" data-name="Path 249" d="M42.369,96.439c-3.381-2.483-6.635-3.237-9.6.527-.89,1.128-1.609,1.551-3.018.694-2.77-1.68-6.471-1.825-8.467-5.19-.4,4.242,1.48,7.449,4.122,10.295-2.639,2.043-5.479.462-9.082,1.155,4.643,3.668,8.828,5.523,13.657,5.6C38.778,109.675,38.182,100.844,42.369,96.439Z" transform="translate(-11.861 -67.213)" fill="#52bc04"/>
      <path id="Path_250" data-name="Path 250" d="M374.775,40.031c6.624,1.317,12.791-3.081,15.569-11.048,1.117-3.2.227-4.239-2.617-3.914a15.457,15.457,0,0,0-15.2,11.073C371.773,38.595,372.172,39.526,374.775,40.031Z" transform="translate(-270.527 -18.181)" fill="#52bc04"/>
      <path id="Path_251" data-name="Path 251" d="M26.31,276.977c3.037.675,4.447.093,4-2.9-.03-6.73-4.867-11.5-12.6-13.07-2.813-.571-3.824-.044-3.474,3.032C14.991,270.6,19.564,275.47,26.31,276.977Z" transform="translate(-10.303 -189.573)" fill="#52bc04"/>
      <path id="Path_252" data-name="Path 252" d="M592.2,290.865c-1.912,1.978-3.136.91-4.917.047s-3.048-2.887-5.375-2.912c-1.38,3.294,1.912,5.091,2.253,7.752-1.912,1.325-4-.393-6.481.41,8.008,7.877,13.758,7.473,19-1.134.68-1.114,4.07-1.639,1.7-3.862C596.6,289.505,594.077,288.912,592.2,290.865Z" transform="translate(-419.891 -209.336)" fill="#52bc04"/>
      <path id="Path_253" data-name="Path 253" d="M190.481,56.539c1.4.44,1.841-.317,2.458-1.169,2.647-3.7,2.062-9.309-1.429-13.575a2.7,2.7,0,0,0-.344-.393c-1.928-1.59-3.595-5.023-6.075-3.9-2.185.989-1.745,4.643-2.092,6.9C183.063,49.287,187.1,55.482,190.481,56.539Z" transform="translate(-133.014 -27.098)" fill="#52bc04"/>
      <path id="Path_254" data-name="Path 254" d="M183.547,473.882a13.559,13.559,0,0,0-10.442-13.321c-2.581-.609-3.425.156-3.676,2.658-.623,6.228,5.823,13.313,12.141,13.384C183.837,476.613,183.572,475.286,183.547,473.882Z" transform="translate(-123.119 -334.62)" fill="#52bc04"/>
      <path id="Path_255" data-name="Path 255" d="M329.074,13.35c1.052,2.77,2.333,6.828,5.19,6.315,3.147-.585,4.387-4.619,4.66-8.227A16.909,16.909,0,0,0,333.657.378c-.8-.819-1.584-.158-2.111.625-2.423,3.6-4.056,7.375-2.658,11.846C328.956,13.019,329.011,13.186,329.074,13.35Z" transform="translate(-238.679 -0.002)" fill="#52bc04"/>
      <path id="Path_256" data-name="Path 256" d="M369.978,508.818a28.651,28.651,0,0,1-4.144-2.537c.041,3.586,2.2,5.8,3.551,8.265-2.365,1.336-4.583,0-7.465.391,3.824,3.056,7.416,4.755,11.854,4.548,6.624-.306,6.028-6.812,9.126-10.379-2.049-1.385-4.578-2.573-6.208-.563C374.22,511.6,372.157,509.686,369.978,508.818Z" transform="translate(-263.064 -367.996)" fill="#52bc04"/>
      <path id="Path_257" data-name="Path 257" d="M240.584,42.791c4.2,1.117,7.765-.079,11.488-2.688-1.751-1.857-3.928-.448-5.108-1.912.833-2.289,3.592-3.674,2.2-6.722-3.578,1.388-6.828,4.458-10.628.429-1.226-1.295-3.485-.049-5.059,1.434C236.684,36.088,235.75,41.5,240.584,42.791Z" transform="translate(-169.706 -22.792)" fill="#52bc04"/>
      <path id="Path_258" data-name="Path 258" d="M481.652,68.411c.546-1.158,3.278-2.01,1.2-3.767-1.557-1.319-3.851-1.729-5.25,0-1.863,2.308-3.507,1.4-5.395.44-1.42-.721-2.871-1.366-4.351-.363-.183,2.311,2.343,3.4,2.475,5.78l-5.818.35C471.082,77.5,477.889,76.512,481.652,68.411Z" transform="translate(-337.632 -46.153)" fill="#52bc04"/>
      <path id="Path_259" data-name="Path 259" d="M204.631,368.289c-.393-2.731-1.273-3.652-4.1-2.357-5.52,2.527-7.394,8.014-5.023,15.607C202.449,378.892,205.505,374.353,204.631,368.289Z" transform="translate(-141.376 -265.562)" fill="#52bc04"/>
      <path id="Path_260" data-name="Path 260" d="M631.654,445.85c-4.25.44-7.921,5.714-7.509,11.2.123,1.62-.625,4.255,1.961,4.619,2.969.418,7.8-5.629,8.235-9.866.055-.522.06-1.049.1-1.816C633.673,448.658,635.47,445.454,631.654,445.85Z" transform="translate(-453.642 -324.047)" fill="#52bc04"/>
      <path id="Path_261" data-name="Path 261" d="M412.174,407.668c4.419-.052,8.369-4.119,8.962-9.325.12-1.057.885-2.423-.926-2.977-2.824-.863-8.506,3.155-9.975,7.137a17.21,17.21,0,0,0-.666,2.51C409.131,407.154,410.177,407.886,412.174,407.668Z" transform="translate(-297.626 -287.29)" fill="#52bc04"/>
      <path id="Path_262" data-name="Path 262" d="M611.455,219.65a11.055,11.055,0,0,0-7.2,9.486c-.4,3.054,1.093,3.824,3.712,2.977,4.832-1.554,6.632-5.313,6.979-9.56C615.533,218.811,614.124,218.56,611.455,219.65Z" transform="translate(-439.163 -159.245)" fill="#52bc04"/>
      <path id="Path_263" data-name="Path 263" d="M176.879,526.64c-4.313-.156-10.248,4.138-9.89,7.153.311,2.639,2.868,1.89,4.316,2.322,3.958-.016,10.177-4.935,9.806-7.79C180.774,525.717,178.357,526.695,176.879,526.64Z" transform="translate(-121.365 -382.696)" fill="#52bc04"/>
      <path id="Path_264" data-name="Path 264" d="M132.534,222.611c-3.177-.874-4.13.311-4.291,3.22-.352,6.353,4.613,11.693,12.346,13.7,2.873.743,3.521-.112,3.2-2.458A15.032,15.032,0,0,0,132.534,222.611Z" transform="translate(-93.2 -161.603)" fill="#52bc04"/>
      <path id="Path_265" data-name="Path 265" d="M199.291,239.6c-4.318,1.912-5.364,5.679-5.231,9.972.03,1,.093,2.439,1.6,2.021a9.76,9.76,0,0,0,7.443-7.956,11.143,11.143,0,0,0,.12-1.4C203.151,238.992,202.17,238.318,199.291,239.6Z" transform="translate(-141.045 -173.713)" fill="#52bc04"/>
      <path id="Path_266" data-name="Path 266" d="M461.96,352.536c-9.287-5.922-19.1-5.624-28.732-1.366a12.12,12.12,0,0,1-10.27.23,46.024,46.024,0,0,0-22.255-2.876c-1.677.2-4.012.885-3.911,2.854.112,2.185,2.48,1.267,3.9,1.385,7.222.587,14.252,1.814,21.032,5.8-9.1,9.516-11.71,21.032-10.835,33.6.385,5.526,1.876,10.794,5.463,15.1,5.261,6.321,12.122,9.107,20.212,7.1,9.055-2.248,12.564-9.393,14.378-17.754,2.278-10.538-.508-20.155-5.274-29.423l.027-.082-.027.082c2.087-.382,2.914,3.879,5.127,1.734,1.639-1.584,1.639-4.209.986-6.435-.636-2.185-1.961-5.113-4.07-4.794-2.663.4-2.655,3.521-2.357,6,.126,1.032.295,2.057.445,3.084h0c-4.428-3.029-7.274-7.727-12.291-10.36,11.016-8.361,26.221,1,27.09,10.426.314,3.439,1.426,5.49,5.08,4.917,3.575-.546,4.917-2.974,4.613-6.473C469.81,359.512,466.6,355.494,461.96,352.536Zm-22.176,51.35c-2.33,5.43-8.328,6.34-12.854,1.745-5.031-5.108-6.047-11.7-6.32-18.554.716-7.492,1.726-14.952,5.007-21.922,1.093-2.308,1.887-3.278,4.439-1.174,10.9,9.038,15.353,26.8,9.729,39.9Z" transform="translate(-288.408 -252.966)" fill="#52bc04"/>
      <path id="Path_267" data-name="Path 267" d="M238.212,423.435c13.384,10.887,33.7,11.715,47.138,1.671,2.079-1.554,6.635-3.084,4.133-6.572-2.385-3.324-5.405.065-7.689,1.639-13.384,9.213-28.314,6.908-38.933-6.555,1.8-.943,3.417-1.658,4.9-2.584,11.128-6.968,20.565-15.534,24.536-28.529,2.5-8.194-1.366-15.058-9.36-18.085-12.974-4.916-29.275,2.03-35.008,14.889C221.217,394.356,225.609,413.192,238.212,423.435Zm2.89-49.294c4.37-5.463,9.833-6.637,15.38-3.469,5.269,3,7.227,8.268,4.758,14.547-3.8,9.68-10.808,16.722-19.478,22.245-2.21,1.407-2.95.4-3.7-1.639a49.249,49.249,0,0,1-2.731-13.589c.486-6.725,1.631-12.917,5.769-18.1Z" transform="translate(-163.397 -263.73)" fill="#52bc04"/>
      <path id="Path_268" data-name="Path 268" d="M64.516,395.987c.923-.4,1.95-1.243,1.685-2.42-.317-1.4-1.639-1.655-2.909-1.721-2.368-.126-4.439.942-6.607,1.639-12.209,3.909-27.986.484-34.618-7.6,11.3-4.171,19.753-11.363,24.077-22.818,5.621-14.883-3.346-28.518-18.5-28.355-3.764.041-7.2,1.42-10.816,2.032a.855.855,0,0,0-.038-.918c.765-2.251,5.031-3.887,2.42-6.473-2.294-2.273-5.913-1.639-8.861.161a3.9,3.9,0,0,0-.448.273c-2.308,1.885-5.553,4.2-4.657,6.93.819,2.458,4.66,1.166,7.225,1.117l1.073,1.043h0c-17.943,12.671-18.134,40.045-.164,53.41,13.152,9.778,27.95,10.442,43.276,6.651A51.1,51.1,0,0,0,64.516,395.987ZM15.324,379.17a31.152,31.152,0,0,1-4.589-16.834c.352-5.558,1.333-11.248,4.774-16.183,4.829-6.924,13.93-6.722,18.415.407,8,12.7-2.128,30.709-14.829,34.522C17.116,381.68,16.228,380.637,15.324,379.17Z" transform="translate(0.006 -238.332)" fill="#52bc04"/>
      <path id="Path_269" data-name="Path 269" d="M428.992,114.255c-.093,2.144,1.885,1.573,3.128,1.795a27.227,27.227,0,0,1,10.2,3.723c-1.327,1.592-2.382,2.759-3.33,4-8.623,11.368-9.3,29.961-1.409,40.086,4.488,5.758,10.322,8.366,17.634,6.828,7.175-1.516,11.125-6.249,12.731-13.2a38.7,38.7,0,0,0-.391-18.784c-2.144-8.213-6.744-14.881-13.3-20.835,6.184-3.081,11.357-1.792,16.143,1.658,5.143,3.706,7.432,8.719,6.178,15.154-.688,3.551,1.065,5.08,4.5,4.07a7.1,7.1,0,0,0,4.957-5.031c1.947-6.266.076-11.537-4.624-15.711-8.5-7.544-18.3-8.355-28.589-4.5a8.313,8.313,0,0,1-6.891.027c-4.37-1.857-9.038-2.985-13.87-1.713C430.723,112.16,429.06,112.616,428.992,114.255Zm20.994,11.562c9.076,10.677,11.065,22.848,7.547,36.054-1.052,3.947-4.916,4.548-8.3,1.382-5.769-5.416-7.58-12.444-7.593-20.177.341-5.771,1.344-11.414,4.25-16.629,1.21-2.158,2.122-2.942,4.089-.628Z" transform="translate(-311.813 -80.861)" fill="#52bc04"/>
    </g>
  </g>
</svg>
