<svg xmlns="http://www.w3.org/2000/svg" width="29.568" height="32.139" viewBox="0 0 29.568 32.139">
  <path id="Shape" d="M27.233,21.161a15.674,15.674,0,0,1-5.3-.917,2.217,2.217,0,0,0-2.308.531l-3.357,2.755a19.628,19.628,0,0,1-8.344-9.068L10.386,10.9a2.711,2.711,0,0,0,.577-2.59,19.8,19.8,0,0,1-.848-5.775A2.445,2.445,0,0,0,7.781,0H2.334A2.445,2.445,0,0,0,0,2.537c0,16.321,12.218,29.6,27.233,29.6A2.445,2.445,0,0,0,29.568,29.6V23.7A2.445,2.445,0,0,0,27.233,21.161Z" transform="translate(0 0)" fill="#4ac200"/>
</svg>
