<svg id="_048-behance" data-name="048-behance" xmlns="http://www.w3.org/2000/svg" width="22.167" height="22.167" viewBox="0 0 22.167 22.167">
  <path id="Path_2" data-name="Path 2" d="M18.92,0H3.247A3.251,3.251,0,0,0,0,3.247V18.92a3.251,3.251,0,0,0,3.247,3.247H18.92a3.251,3.251,0,0,0,3.247-3.247V3.247A3.251,3.251,0,0,0,18.92,0Zm1.948,18.92a1.951,1.951,0,0,1-1.948,1.948H3.247A1.951,1.951,0,0,1,1.3,18.92V3.247A1.951,1.951,0,0,1,3.247,1.3H18.92a1.951,1.951,0,0,1,1.948,1.948Zm0,0"/>
  <path id="Path_3" data-name="Path 3" d="M97.494,153.6a2.6,2.6,0,0,0-2.6-2.6H91v9.092h3.9a2.6,2.6,0,0,0,1.715-4.546A2.591,2.591,0,0,0,97.494,153.6Zm-1.3,3.9a1.3,1.3,0,0,1-1.3,1.3H92.3v-2.6h2.6A1.3,1.3,0,0,1,96.2,157.494Zm-3.9-2.6v-2.6h2.6a1.3,1.3,0,0,1,0,2.6Zm0,0" transform="translate(-87.06 -144.462)"/>
  <path id="Path_4" data-name="Path 4" d="M274.247,211a3.247,3.247,0,1,0,2.812,4.871l-1.124-.65a1.949,1.949,0,0,1-3.525-.324h5.084v-.649A3.251,3.251,0,0,0,274.247,211Zm-1.837,2.6a1.949,1.949,0,0,1,3.674,0Zm0,0" transform="translate(-259.267 -201.865)"/>
  <path id="Path_5" data-name="Path 5" d="M286,151h5.2v1.3H286Zm0,0" transform="translate(-273.617 -144.462)"/>
</svg>
