<svg xmlns="http://www.w3.org/2000/svg" width="22.167" height="18.143" viewBox="0 0 22.167 18.143">
  <path id="_043-twitter" data-name="043-twitter" d="M22.167,2.423c-1.394.064-1.364.059-1.522.072L21.471.137s-2.578.948-3.231,1.118a5.172,5.172,0,0,0-6.091-.49A4.219,4.219,0,0,0,10.121,5.1,11.252,11.252,0,0,1,2.832,1L2.22.265,1.763,1.1a5.071,5.071,0,0,0-.54,3.414A4.9,4.9,0,0,0,1.7,5.85l-.525-.2-.062.877A4.677,4.677,0,0,0,1.9,9.3a4.944,4.944,0,0,0,.618.762l-.271-.042.331,1a4.883,4.883,0,0,0,2.51,2.908c-1.171.5-2.116.814-3.67,1.325L0,15.729l1.313.718A13.786,13.786,0,0,0,5.332,17.91c3.886.61,8.262.113,11.208-2.54,2.481-2.235,3.3-5.413,3.126-8.721A2.067,2.067,0,0,1,20.052,5.3c.55-.734,2.111-2.875,2.115-2.88Zm-3.153,2.1a3.366,3.366,0,0,0-.644,2.19c.171,3.337-.737,5.924-2.7,7.691-2.291,2.063-5.987,2.873-10.139,2.222a10.054,10.054,0,0,1-2.172-.646A34.445,34.445,0,0,0,7.3,14.365l2.269-1.074-2.5-.16a3.542,3.542,0,0,1-2.813-1.6A4.492,4.492,0,0,0,5.2,11.37L7.589,10.7l-2.409-.59A3.588,3.588,0,0,1,2.989,8.59a3.674,3.674,0,0,1-.475-1.048,6.013,6.013,0,0,0,.977.156l2.23.221L3.954,6.541A3.718,3.718,0,0,1,2.545,2.623a12.922,12.922,0,0,0,9.106,3.919,7.69,7.69,0,0,0-.133-1.1,2.982,2.982,0,0,1,1.311-3.57,3.879,3.879,0,0,1,4.577.379,1.162,1.162,0,0,0,1.066.285,8.977,8.977,0,0,0,.879-.267l-.56,1.6h.715l-.491.657Zm0,0" transform="translate(0 0)"/>
</svg>
